<svg width="300" height="133" fill="none" xmlns="http://www.w3.org/2000/svg"><path d="M39.692 78.208h16.466V74.46H43.817V54.792h-4.125v23.416Z" fill="#A50D73"/><path fill-rule="evenodd" clip-rule="evenodd" d="M61.28 64.56v13.648h17.572v-3.68H65.404V68.24h11.771V64.56H61.28Z" fill="#A50D73"/><path fill-rule="evenodd" clip-rule="evenodd" d="M78.684 54.792H61.28v3.68h17.404v-3.68Z" fill="#B8BAC1"/><path fill-rule="evenodd" clip-rule="evenodd" d="M96.717 54.625h-3.823L82.565 78.208h4.226c4.073-9.537 3.642-8.645 7.947-18.666 4.293 9.909 3.963 9.203 7.948 18.666h4.36l-10.33-23.583Z" fill="#A50D73"/><path d="m128.298 70.983-12.576-16.19h-3.823v23.415h4.058V61.55l12.944 16.658h3.455V54.792h-4.058v16.19Z" fill="#A50D73"/><path d="M148.007 69.946v-3.981h-9.926v3.98h9.926Z" fill="#B8BAC1"/><path d="m174.155 74.461-2.649-2.675c-1.006.936-2.023 1.677-3.052 2.224-1.028.546-2.258.82-3.688.82-1.118 0-2.152-.218-3.102-.653a7.577 7.577 0 0 1-2.465-1.79 8.12 8.12 0 0 1-1.61-2.659 9.225 9.225 0 0 1-.57-3.261c0-1.16.19-2.242.57-3.245a7.962 7.962 0 0 1 1.61-2.626 7.694 7.694 0 0 1 2.465-1.773c.95-.434 1.984-.652 3.102-.652 1.341 0 2.537.268 3.588.803a13.223 13.223 0 0 1 2.984 2.107l2.65-3.044a15.993 15.993 0 0 0-1.778-1.472 11.454 11.454 0 0 0-2.045-1.154 11.976 11.976 0 0 0-2.431-.753 14.885 14.885 0 0 0-2.935-.267c-1.788 0-3.42.318-4.896.953a11.744 11.744 0 0 0-3.823 2.61 11.8 11.8 0 0 0-2.498 3.863c-.593 1.472-.889 3.044-.889 4.717 0 1.694.302 3.278.906 4.75a11.774 11.774 0 0 0 2.498 3.83 11.688 11.688 0 0 0 3.773 2.558c1.453.625 3.04.937 4.761.937 1.096 0 2.096-.094 3.002-.284.906-.19 1.738-.469 2.498-.836.76-.368 1.47-.803 2.13-1.305a15.105 15.105 0 0 0 1.894-1.723ZM202.148 66.467c0-1.65-.302-3.212-.906-4.683a11.832 11.832 0 0 0-2.515-3.847c-1.073-1.093-2.358-1.957-3.856-2.593-1.498-.635-3.152-.953-4.964-.953-1.81 0-3.465.324-4.963.97-1.497.647-2.794 1.522-3.889 2.626a11.736 11.736 0 0 0-2.549 3.864 12.213 12.213 0 0 0-.906 4.683c0 1.65.302 3.21.906 4.683a11.83 11.83 0 0 0 2.515 3.846c1.073 1.093 2.358 1.957 3.856 2.593 1.498.635 3.153.953 4.964.953 1.811 0 3.465-.323 4.963-.97a12.284 12.284 0 0 0 3.89-2.626 11.751 11.751 0 0 0 2.548-3.863c.604-1.472.906-3.033.906-4.683Zm-4.326.067a8.878 8.878 0 0 1-.587 3.228 8.169 8.169 0 0 1-1.626 2.642 7.592 7.592 0 0 1-2.499 1.773c-.973.435-2.04.652-3.203.652-1.162 0-2.235-.223-3.219-.669a7.825 7.825 0 0 1-2.531-1.806 8.181 8.181 0 0 1-1.644-2.66 8.896 8.896 0 0 1-.587-3.227c0-1.138.196-2.214.587-3.228a8.15 8.15 0 0 1 1.627-2.643 7.587 7.587 0 0 1 2.498-1.773c.972-.434 2.04-.652 3.203-.652 1.162 0 2.235.223 3.219.669a7.821 7.821 0 0 1 2.532 1.807 8.194 8.194 0 0 1 1.643 2.659 8.88 8.88 0 0 1 .587 3.228ZM229.201 66.467c0-1.65-.302-3.19-.905-4.616a10.906 10.906 0 0 0-2.566-3.714c-1.106-1.048-2.425-1.867-3.956-2.458-1.532-.591-3.214-.887-5.048-.887h-8.752v23.416h8.752c1.834 0 3.516-.301 5.048-.903 1.531-.603 2.85-1.428 3.956-2.476a10.865 10.865 0 0 0 2.566-3.73c.603-1.438.905-2.982.905-4.632Zm-4.325.067c0 1.159-.196 2.224-.587 3.194a7.434 7.434 0 0 1-1.643 2.509c-.705.702-1.56 1.249-2.566 1.64-1.006.39-2.124.584-3.354.584h-4.627V58.54h4.627c1.23 0 2.348.2 3.354.602 1.006.401 1.861.959 2.566 1.673a7.607 7.607 0 0 1 1.643 2.525c.391.97.587 2.035.587 3.195Z" fill="#3A343D"/><path fill-rule="evenodd" clip-rule="evenodd" d="M235.027 64.56v13.648H252.6v-3.68h-13.448V68.24h11.771V64.56h-15.896Z" fill="#3A343D"/><path fill-rule="evenodd" clip-rule="evenodd" d="M252.432 54.792h-17.405v3.68h17.405v-3.68Z" fill="#B8BAC1"/><path d="m278.245 78.208-6.338-8.864a8.74 8.74 0 0 0 2.263-.954 6.944 6.944 0 0 0 1.761-1.505 6.76 6.76 0 0 0 1.157-2.04c.279-.77.419-1.645.419-2.627 0-1.137-.201-2.168-.603-3.094a6.359 6.359 0 0 0-1.727-2.341c-.75-.636-1.666-1.127-2.75-1.472-1.084-.346-2.297-.519-3.639-.519h-10.463v23.416h4.125v-8.162h5.165l5.768 8.162h4.862Zm-4.929-15.755c0 1.204-.436 2.163-1.308 2.876-.872.714-2.046 1.071-3.522 1.071h-6.036V58.54h6.003c1.543 0 2.739.328 3.588.987.85.658 1.275 1.633 1.275 2.927ZM286.888 60.914c0-.78.335-1.444 1.006-1.99.671-.547 1.609-.82 2.817-.82a8.65 8.65 0 0 1 3.185.619c1.052.412 2.114 1.01 3.186 1.79l2.214-3.111a13.833 13.833 0 0 0-3.873-2.191c-1.376-.502-2.924-.753-4.645-.753-1.162 0-2.236.162-3.219.485-.984.324-1.828.786-2.532 1.388a6.539 6.539 0 0 0-1.661 2.158c-.402.836-.603 1.767-.603 2.793 0 1.093.174 2.018.52 2.776.347.759.85 1.405 1.509 1.94.66.535 1.476.982 2.448 1.338.972.357 2.085.68 3.337.97 1.095.268 1.984.524 2.666.77.682.245 1.218.507 1.609.786.392.279.66.585.805.92.146.334.218.713.218 1.137 0 .914-.374 1.639-1.123 2.174-.749.536-1.761.803-3.035.803-1.476 0-2.795-.262-3.957-.786-1.163-.524-2.314-1.277-3.454-2.258l-2.482 2.944c1.409 1.27 2.94 2.213 4.594 2.826 1.655.614 3.387.92 5.198.92 1.23 0 2.359-.156 3.387-.468 1.029-.312 1.912-.77 2.65-1.371a6.326 6.326 0 0 0 1.727-2.208c.413-.87.62-1.863.62-2.977 0-.981-.162-1.835-.486-2.559a5.497 5.497 0 0 0-1.425-1.907c-.626-.546-1.414-1.009-2.365-1.388-.95-.38-2.04-.725-3.269-1.037a32.678 32.678 0 0 1-2.767-.77c-.726-.245-1.296-.512-1.71-.802-.414-.29-.699-.602-.856-.937-.156-.334-.234-.736-.234-1.204Z" fill="#3A343D"/><path fill-rule="evenodd" clip-rule="evenodd" d="M128.43 4.392v47.11h3.903V.5H0v132h132.333V81.498h-3.903v47.109H3.902V4.392H128.43Z" fill="#B8BAC1"/><path d="m144.526 88.508-.877-.863a3.52 3.52 0 0 1-.74.57 1.81 1.81 0 0 1-.908.221 1.81 1.81 0 0 1-.77-.162 1.89 1.89 0 0 1-.991-1.085 2.269 2.269 0 0 1-.139-.804 2.187 2.187 0 0 1 .517-1.427c.161-.184.353-.33.577-.438.225-.108.469-.162.734-.162.368 0 .679.074.932.222.252.148.491.338.715.57l.902-.972a3.522 3.522 0 0 0-1.04-.791c-.397-.2-.896-.3-1.497-.3-.473 0-.912.088-1.317.263a3.214 3.214 0 0 0-1.046.72 3.345 3.345 0 0 0-.932 2.34 3.281 3.281 0 0 0 .932 2.32c.293.3.639.536 1.04.708a3.29 3.29 0 0 0 1.311.258c.617 0 1.126-.11 1.527-.33.401-.22.758-.506 1.07-.858Zm2.79-1.367c0-.416.052-.782.157-1.098.104-.316.252-.578.445-.785.192-.209.42-.364.685-.468.264-.104.557-.156.878-.156h.084v-1.535c-.562-.024-1.026.108-1.395.395a2.783 2.783 0 0 0-.854 1.152v-1.427h-1.455v6.333h1.455V87.14Zm4.401-.24h4.666a4.22 4.22 0 0 0 .024-.396c0-.456-.064-.891-.192-1.307a3.227 3.227 0 0 0-.571-1.092 2.73 2.73 0 0 0-.95-.743c-.381-.184-.824-.276-1.329-.276-.457 0-.874.088-1.251.263a3.093 3.093 0 0 0-.979.714c-.277.3-.492.65-.644 1.05-.153.4-.228.827-.228 1.283 0 .496.084.946.252 1.35.168.403.399.75.691 1.037a3.13 3.13 0 0 0 1.035.672c.396.16.823.24 1.28.24.585 0 1.089-.108 1.509-.324a3.526 3.526 0 0 0 1.089-.864l-.854-.755a3.06 3.06 0 0 1-.782.563 2.13 2.13 0 0 1-.938.192c-.473 0-.874-.138-1.202-.414-.329-.275-.537-.673-.626-1.193Zm-.012-.96c.065-.495.243-.897.536-1.205.292-.308.663-.462 1.112-.462a1.493 1.493 0 0 1 1.13.486c.136.148.245.324.325.527.08.204.132.422.156.654h-3.259Zm11.496 3.61v-3.754c0-.847-.228-1.505-.685-1.973-.457-.468-1.158-.701-2.105-.701-.521 0-.966.047-1.334.143-.369.096-.73.224-1.083.384l.397 1.164a6.27 6.27 0 0 1 .854-.288c.281-.072.601-.108.962-.108.505 0 .892.116 1.161.348.268.232.402.567.402 1.007v.156a5.962 5.962 0 0 0-.775-.192 5.7 5.7 0 0 0-.981-.072c-.368 0-.711.043-1.027.126a2.4 2.4 0 0 0-.818.378c-.229.168-.407.38-.536.636a1.985 1.985 0 0 0-.192.9v.023c0 .32.062.602.187.846.124.244.288.448.493.612.204.164.443.288.715.372.272.084.561.126.866.126.481 0 .89-.088 1.226-.264.337-.176.614-.392.83-.648v.78h1.443Zm-1.407-2.29a1.18 1.18 0 0 1-.481.965 1.723 1.723 0 0 1-.535.27 2.219 2.219 0 0 1-.668.096c-.344 0-.635-.08-.871-.24-.237-.16-.355-.392-.355-.696v-.023c0-.328.128-.58.385-.756.257-.176.613-.264 1.07-.264.281 0 .548.024.8.072.253.048.471.108.655.18v.396Zm4.834-2.795h1.708v-1.247h-1.708v-1.74h-1.455v1.74h-.806v1.247h.806V87.8c0 .351.044.645.132.881.088.236.215.426.379.57.165.144.359.248.583.312.225.063.469.096.734.096.272 0 .513-.028.721-.084a2.53 2.53 0 0 0 .589-.24v-1.188a1.995 1.995 0 0 1-.901.216c-.249 0-.441-.062-.577-.186-.137-.124-.205-.325-.205-.605v-3.107Zm4.101 2.435h4.666c.007-.072.014-.14.018-.204a4.423 4.423 0 0 0-.187-1.5 3.21 3.21 0 0 0-.571-1.09 2.73 2.73 0 0 0-.95-.745c-.381-.183-.824-.275-1.329-.275-.456 0-.873.088-1.25.263a3.097 3.097 0 0 0-.98.714c-.277.3-.491.65-.644 1.05a3.58 3.58 0 0 0-.228 1.283c0 .496.084.946.252 1.35.169.403.399.75.692 1.037.293.288.637.511 1.034.672.397.16.824.24 1.28.24.586 0 1.089-.108 1.51-.324a3.522 3.522 0 0 0 1.088-.864l-.854-.755a3.043 3.043 0 0 1-.782.563 2.13 2.13 0 0 1-.937.192c-.473 0-.874-.138-1.203-.414-.329-.275-.537-.673-.625-1.193Zm-.012-.96c.064-.495.242-.897.535-1.205.293-.308.663-.462 1.112-.462a1.498 1.498 0 0 1 1.13.486c.137.148.245.324.325.527.08.204.133.422.157.654h-3.259Zm12.446 1.931-1.708-4.653h-1.564l2.61 6.38h1.311l2.597-6.38h-1.527l-1.719 4.654Zm9.511 1.68v-3.755c0-.847-.228-1.505-.685-1.973-.457-.468-1.159-.701-2.105-.701-.521 0-.966.047-1.335.143a6.777 6.777 0 0 0-1.082.384l.397 1.164c.288-.12.573-.216.854-.288a3.88 3.88 0 0 1 .962-.108c.505 0 .892.116 1.16.348.269.232.403.567.403 1.007v.156a5.962 5.962 0 0 0-.775-.192 5.7 5.7 0 0 0-.981-.072c-.368 0-.711.043-1.027.126a2.4 2.4 0 0 0-.818.378c-.229.168-.407.38-.535.636a1.972 1.972 0 0 0-.193.9v.023c0 .32.062.602.187.846.124.244.288.448.493.612.204.164.443.288.715.372.273.084.561.126.866.126.481 0 .89-.088 1.227-.264.336-.176.613-.392.829-.648v.78h1.443Zm-1.407-2.291a1.18 1.18 0 0 1-.481.965 1.723 1.723 0 0 1-.535.27 2.222 2.222 0 0 1-.667.096c-.345 0-.636-.08-.872-.24-.237-.16-.355-.392-.355-.696v-.023c0-.328.128-.58.385-.756.256-.176.613-.264 1.07-.264.281 0 .548.024.8.072.253.048.471.108.655.18v.396Zm4.678 2.29v-8.755h-1.455v8.756h1.455Zm6.072-2.758c0 .496-.132.882-.397 1.158-.264.275-.609.413-1.034.413-.432 0-.767-.134-1.004-.402-.236-.268-.354-.649-.354-1.145V83.22h-1.455v4.03c0 .744.196 1.335.589 1.775.393.44.95.66 1.671.66.49 0 .891-.11 1.203-.33.313-.22.573-.482.781-.786v.984h1.455v-6.333h-1.455v3.574Zm4.389.108h4.666a4.22 4.22 0 0 0 .024-.396c0-.456-.064-.891-.192-1.307a3.229 3.229 0 0 0-.572-1.092 2.726 2.726 0 0 0-.949-.743c-.381-.184-.824-.276-1.329-.276-.457 0-.874.088-1.251.263a3.12 3.12 0 0 0-.98.714c-.276.3-.491.65-.643 1.05a3.58 3.58 0 0 0-.228 1.283c0 .496.083.946.252 1.35.169.403.398.75.691 1.037.293.288.638.511 1.034.672.397.16.824.24 1.281.24.585 0 1.088-.108 1.51-.324.42-.216.783-.504 1.087-.864l-.853-.755a3.077 3.077 0 0 1-.782.563 2.134 2.134 0 0 1-.938.192c-.473 0-.874-.138-1.202-.414-.329-.275-.537-.673-.626-1.193Zm-.012-.96c.064-.495.243-.897.535-1.205.293-.308.664-.462 1.113-.462a1.493 1.493 0 0 1 1.13.486c.136.148.245.324.325.527.08.204.132.422.156.654h-3.259Zm14.659-2.747h-1.239l-1.407 4.367-1.275-4.342h-1.491l2.057 6.38h1.298l1.432-4.33 1.418 4.33h1.299l2.08-6.38h-1.455l-1.298 4.342-1.419-4.367Zm7.058-.947v-1.38h-1.563v1.38h1.563Zm-.048 7.305v-6.333h-1.455v6.333h1.455Zm3.656-5.086h1.707v-1.247h-1.707v-1.74h-1.455v1.74h-.806v1.247h.806V87.8c0 .351.044.645.132.881.088.236.215.426.379.57.164.144.359.248.583.312.225.063.469.096.733.096.273 0 .513-.028.722-.084a2.53 2.53 0 0 0 .589-.24v-1.188a1.996 1.996 0 0 1-.902.216c-.248 0-.441-.062-.577-.186-.136-.124-.204-.325-.204-.605v-3.107Zm4.629 1.511c0-.496.133-.882.397-1.157.265-.276.61-.413 1.035-.413.433 0 .767.133 1.004.401.236.268.354.65.354 1.145v3.599h1.455v-4.03c0-.744-.196-1.336-.589-1.776-.393-.44-.95-.66-1.672-.66-.248 0-.47.03-.667.09a2.231 2.231 0 0 0-.974.6 3.679 3.679 0 0 0-.343.426v-3.406h-1.455v8.756h1.455v-3.575Zm12.422.408a3.245 3.245 0 0 0-2.026-3.04 3.49 3.49 0 0 0-1.353-.258 3.376 3.376 0 0 0-2.423.978c-.301.299-.537.65-.709 1.055a3.255 3.255 0 0 0-.259 1.29c0 .455.084.88.253 1.277a3.262 3.262 0 0 0 1.773 1.75c.413.173.86.259 1.341.259.489 0 .942-.088 1.359-.264a3.335 3.335 0 0 0 1.076-.714c.301-.3.538-.65.71-1.05.172-.4.258-.827.258-1.283Zm-1.455.024c0 .28-.044.542-.132.786a1.9 1.9 0 0 1-.385.642c-.168.183-.371.33-.607.438a1.91 1.91 0 0 1-.8.161c-.28 0-.539-.054-.776-.162a1.953 1.953 0 0 1-.613-.437 1.983 1.983 0 0 1-.402-.654 2.221 2.221 0 0 1-.145-.798c0-.28.044-.541.132-.785a1.873 1.873 0 0 1 .992-1.08 1.88 1.88 0 0 1 .788-.162c.289 0 .551.054.788.162.236.108.441.256.613.444s.307.405.403.654c.096.247.144.511.144.791Zm7.107.384c0 .496-.132.882-.397 1.158-.265.275-.609.413-1.034.413-.433 0-.768-.134-1.004-.402s-.355-.649-.355-1.145V83.22h-1.455v4.03c0 .744.197 1.335.59 1.775.393.44.949.66 1.671.66.489 0 .89-.11 1.203-.33a3.1 3.1 0 0 0 .781-.786v.984h1.455v-6.333h-1.455v3.574Zm5.039-2.327h1.707v-1.247h-1.707v-1.74h-1.456v1.74h-.805v1.247h.805V87.8c0 .351.045.645.133.881.088.236.214.426.379.57.164.144.358.248.583.312.224.063.469.096.733.096.273 0 .513-.028.722-.084.208-.056.405-.136.589-.24v-1.188a1.996 1.996 0 0 1-.902.216c-.249 0-.441-.062-.577-.186-.136-.124-.204-.325-.204-.605v-3.107Zm11.664-1.272h-1.239l-1.407 4.367-1.274-4.342h-1.491l2.056 6.38h1.298l1.432-4.33 1.419 4.33h1.298l2.08-6.38h-1.454l-1.299 4.342-1.419-4.367Zm10.558 6.358v-3.755c0-.847-.229-1.505-.686-1.973-.456-.468-1.158-.701-2.104-.701-.521 0-.966.047-1.335.143a6.742 6.742 0 0 0-1.082.384l.397 1.164c.288-.12.573-.216.853-.288.281-.072.602-.108.963-.108.505 0 .891.116 1.16.348.269.232.403.567.403 1.007v.156a5.977 5.977 0 0 0-.776-.192 5.68 5.68 0 0 0-.98-.072c-.369 0-.711.043-1.028.126a2.41 2.41 0 0 0-.818.378c-.228.168-.406.38-.535.636a1.985 1.985 0 0 0-.192.9v.023c0 .32.062.602.186.846.125.244.289.448.493.612.205.164.443.288.716.372.272.084.561.126.865.126.481 0 .891-.088 1.227-.264.337-.176.613-.392.83-.648v.78h1.443Zm-1.407-2.291a1.18 1.18 0 0 1-.481.965 1.723 1.723 0 0 1-.535.27 2.228 2.228 0 0 1-.668.096c-.344 0-.635-.08-.872-.24-.236-.16-.354-.392-.354-.696v-.023c0-.328.128-.58.384-.756.257-.176.614-.264 1.071-.264.281 0 .547.024.799.072.253.048.471.108.656.18v.396Zm7.672.42v-.025c0-.288-.061-.531-.18-.731-.121-.2-.276-.37-.463-.51-.189-.14-.4-.258-.632-.354a8.067 8.067 0 0 0-.697-.252 14.217 14.217 0 0 1-.535-.174 3.518 3.518 0 0 1-.457-.191 1.188 1.188 0 0 1-.319-.228.41.41 0 0 1-.121-.294v-.024c0-.184.079-.336.235-.456.157-.12.375-.18.656-.18.264 0 .552.054.865.162.313.108.622.254.926.438l.578-1.032a4.379 4.379 0 0 0-2.333-.72c-.313 0-.608.044-.884.133a2.148 2.148 0 0 0-.722.383 1.805 1.805 0 0 0-.481.612c-.116.24-.174.508-.174.804v.024c0 .303.06.557.181.761.119.204.274.376.462.516s.401.254.638.342c.236.088.471.168.703.24l.535.162c.172.052.325.111.457.18.132.067.236.146.313.233a.462.462 0 0 1 .114.313v.024a.58.58 0 0 1-.259.497c-.172.124-.415.186-.727.186a2.96 2.96 0 0 1-1.028-.198 4.256 4.256 0 0 1-1.053-.581l-.649.983c.401.312.836.548 1.305.707.469.16.932.24 1.389.24.328 0 .637-.042.926-.125.288-.084.539-.208.751-.372.213-.164.379-.37.5-.618.119-.247.18-.54.18-.876Zm3.114-3.215h1.708v-1.247h-1.708v-1.74h-1.455v1.74h-.806v1.247h.806V87.8c0 .351.044.645.132.881.088.236.215.426.379.57.165.144.359.248.583.312.225.063.469.096.734.096.272 0 .513-.028.721-.084a2.53 2.53 0 0 0 .589-.24v-1.188a1.995 1.995 0 0 1-.901.216c-.249 0-.441-.062-.577-.186-.137-.124-.205-.325-.205-.605v-3.107Zm4.101 2.435h4.666l.018-.204a4.422 4.422 0 0 0-.187-1.5 3.227 3.227 0 0 0-.571-1.09 2.73 2.73 0 0 0-.95-.745c-.381-.183-.824-.275-1.329-.275-.457 0-.873.088-1.25.263a3.097 3.097 0 0 0-.98.714c-.277.3-.491.65-.644 1.05a3.58 3.58 0 0 0-.228 1.283c0 .496.084.946.252 1.35.169.403.399.75.692 1.037.292.288.637.511 1.034.672.397.16.824.24 1.28.24.586 0 1.089-.108 1.51-.324a3.522 3.522 0 0 0 1.088-.864l-.854-.755a3.043 3.043 0 0 1-.782.563 2.13 2.13 0 0 1-.937.192c-.473 0-.874-.138-1.203-.414-.329-.275-.537-.673-.625-1.193Zm-.012-.96c.064-.495.242-.897.535-1.205.292-.308.663-.462 1.112-.462a1.498 1.498 0 0 1 1.13.486c.137.148.245.324.325.527.08.204.133.422.157.654h-3.259Z" fill="#B8BAC1"/></svg>
