<svg width="301" height="133" viewBox="0 0 301 133" fill="none" xmlns="http://www.w3.org/2000/svg">
<path d="M40.3076 78.2079H56.7733V74.4613H44.4321V54.7925H40.3076V78.2079Z" fill="white"/>
<path fill-rule="evenodd" clip-rule="evenodd" d="M61.8953 64.5602V78.2079H79.4675V74.5284H66.0198V68.2394H77.7904V64.5602H72.8072H66.0198H61.8953Z" fill="white"/>
<path fill-rule="evenodd" clip-rule="evenodd" d="M79.2996 54.7925H61.8953V58.4716H79.2996V54.7925Z" fill="white"/>
<path fill-rule="evenodd" clip-rule="evenodd" d="M97.3321 54.6254H93.5092L83.1809 78.2079H87.4061C91.4794 68.6709 91.0484 69.5631 95.3538 59.5424C99.6466 69.4508 99.3166 68.7452 103.302 78.2079H107.661L97.3321 54.6254Z" fill="white"/>
<path d="M128.913 70.9826L116.338 54.7925H112.515V78.2079H116.573V61.5495L129.517 78.2079H132.971V54.7925H128.913V70.9826Z" fill="white"/>
<path d="M148.622 69.9456V65.9648H138.696V69.9456H148.622Z" fill="white"/>
<path d="M174.771 74.4613L172.122 71.7855C171.116 72.7222 170.098 73.4634 169.07 74.0095C168.041 74.556 166.812 74.8292 165.381 74.8292C164.263 74.8292 163.229 74.6119 162.279 74.177C161.329 73.742 160.507 73.1456 159.815 72.3876C159.121 71.6292 158.585 70.7427 158.205 69.7283C157.824 68.7134 157.634 67.6262 157.634 66.4669C157.634 65.3072 157.824 64.2253 158.205 63.222C158.585 62.2182 159.121 61.3433 159.815 60.596C160.507 59.849 161.329 59.2581 162.279 58.8231C163.229 58.3885 164.263 58.1708 165.381 58.1708C166.722 58.1708 167.918 58.4387 168.97 58.9737C170.02 59.5091 171.015 60.2116 171.954 61.0808L174.603 58.0371C174.044 57.5021 173.452 57.0111 172.826 56.565C172.2 56.1197 171.518 55.7349 170.78 55.4111C170.042 55.088 169.232 54.837 168.349 54.6584C167.466 54.4802 166.488 54.3909 165.414 54.3909C163.626 54.3909 161.994 54.7086 160.518 55.3444C159.043 55.9798 157.769 56.8498 156.696 57.9535C155.622 59.0573 154.789 60.3453 154.197 61.817C153.605 63.289 153.308 64.8611 153.308 66.5336C153.308 68.2283 153.61 69.8118 154.214 71.2835C154.818 72.7551 155.65 74.0321 156.712 75.1136C157.774 76.1951 159.032 77.0482 160.485 77.6725C161.938 78.2972 163.526 78.6092 165.247 78.6092C166.343 78.6092 167.342 78.5145 168.248 78.3248C169.154 78.1355 169.987 77.8565 170.746 77.4889C171.507 77.1206 172.216 76.686 172.876 76.184C173.535 75.6823 174.167 75.1079 174.771 74.4613Z" fill="white"/>
<path d="M202.763 66.4669C202.763 64.8166 202.462 63.2553 201.858 61.7836C201.254 60.312 200.416 59.0297 199.343 57.937C198.27 56.844 196.984 55.9798 195.486 55.3444C193.988 54.7086 192.334 54.3909 190.523 54.3909C188.712 54.3909 187.058 54.7147 185.56 55.3609C184.062 56.0078 182.765 56.8831 181.67 57.9872C180.574 59.091 179.725 60.3783 179.121 61.8507C178.517 63.3224 178.216 64.8833 178.216 66.5336C178.216 68.1838 178.517 69.7447 179.121 71.2168C179.725 72.6884 180.563 73.9708 181.636 75.0634C182.71 76.156 183.995 77.0202 185.493 77.6556C186.991 78.2914 188.645 78.6092 190.456 78.6092C192.267 78.6092 193.921 78.2861 195.419 77.6392C196.917 76.9926 198.214 76.1169 199.309 75.0132C200.405 73.9095 201.254 72.6218 201.858 71.1497C202.462 69.6781 202.763 68.1171 202.763 66.4669ZM198.438 66.5336C198.438 67.671 198.242 68.7468 197.85 69.7616C197.459 70.7761 196.917 71.6567 196.224 72.4041C195.531 73.151 194.698 73.742 193.726 74.177C192.753 74.6119 191.685 74.8292 190.523 74.8292C189.361 74.8292 188.288 74.6062 187.304 74.1601C186.32 73.714 185.476 73.1119 184.772 72.3539C184.068 71.5958 183.52 70.709 183.129 69.6945C182.737 68.6801 182.542 67.6043 182.542 66.4669C182.542 65.329 182.737 64.2533 183.129 63.2388C183.52 62.224 184.062 61.3433 184.755 60.596C185.448 59.849 186.281 59.2581 187.253 58.8231C188.226 58.3885 189.293 58.1708 190.456 58.1708C191.619 58.1708 192.692 58.3939 193.675 58.84C194.659 59.286 195.503 59.8881 196.207 60.6466C196.911 61.4046 197.459 62.2911 197.85 63.3055C198.242 64.3203 198.438 65.3965 198.438 66.5336Z" fill="white"/>
<path d="M229.817 66.4669C229.817 64.8166 229.515 63.2775 228.911 61.8507C228.308 60.4231 227.452 59.1856 226.346 58.1374C225.239 57.0893 223.92 56.2703 222.389 55.6789C220.857 55.088 219.175 54.7925 217.342 54.7925H208.589V78.2079H217.342C219.175 78.2079 220.857 77.9067 222.389 77.3046C223.92 76.7025 225.239 75.8774 226.346 74.8292C227.452 73.781 228.308 72.5382 228.911 71.0995C229.515 69.6612 229.817 68.1171 229.817 66.4669ZM225.491 66.5335C225.491 67.6928 225.295 68.7583 224.904 69.7283C224.513 70.6979 223.965 71.5345 223.261 72.237C222.557 72.9391 221.701 73.4856 220.696 73.8761C219.689 74.2662 218.572 74.4613 217.342 74.4613H212.714V58.5387H217.342C218.572 58.5387 219.689 58.7399 220.696 59.1412C221.701 59.5424 222.557 60.1 223.261 60.8136C223.965 61.5269 224.513 62.3688 224.904 63.3392C225.295 64.3092 225.491 65.3738 225.491 66.5335Z" fill="white"/>
<path fill-rule="evenodd" clip-rule="evenodd" d="M235.643 64.5602V78.2079H253.216V74.5284H239.768V68.2394H251.539V64.5602H246.805H239.768H235.643Z" fill="white"/>
<path fill-rule="evenodd" clip-rule="evenodd" d="M253.048 54.7925H235.643V58.4716H253.048V54.7925Z" fill="white"/>
<path d="M278.86 78.2079L272.522 69.3435C273.35 69.1204 274.104 68.8023 274.786 68.39C275.468 67.9776 276.055 67.4759 276.547 66.8846C277.038 66.2936 277.424 65.6138 277.704 64.8446C277.983 64.075 278.123 63.1997 278.123 62.2182C278.123 61.0808 277.922 60.0498 277.519 59.1239C277.117 58.1988 276.541 57.4181 275.792 56.7827C275.043 56.1469 274.127 55.6563 273.042 55.3106C271.958 54.9653 270.745 54.7925 269.404 54.7925H258.941V78.2079H263.066V70.0456H268.23L273.998 78.2079H278.86ZM273.931 62.4528C273.931 63.6569 273.495 64.6158 272.623 65.329C271.751 66.043 270.577 66.4002 269.102 66.4002H263.066V58.5387H269.068C270.611 58.5387 271.807 58.8675 272.657 59.5256C273.506 60.1836 273.931 61.1593 273.931 62.4528Z" fill="white"/>
<path d="M287.503 60.9137C287.503 60.1334 287.839 59.47 288.509 58.9235C289.18 58.3774 290.119 58.1041 291.326 58.1041C292.4 58.1041 293.462 58.3103 294.512 58.7227C295.563 59.1354 296.625 59.7321 297.698 60.5124L299.911 57.4016C298.704 56.4427 297.413 55.7123 296.038 55.2106C294.663 54.7086 293.115 54.4579 291.394 54.4579C290.231 54.4579 289.158 54.6197 288.174 54.9431C287.19 55.2666 286.346 55.7291 285.642 56.3312C284.938 56.9333 284.385 57.6526 283.982 58.4889C283.58 59.3247 283.378 60.256 283.378 61.2816C283.378 62.3746 283.552 63.3001 283.899 64.0582C284.245 64.8166 284.748 65.4631 285.408 65.9985C286.067 66.5335 286.883 66.9796 287.856 67.3364C288.828 67.6928 289.94 68.0167 291.192 68.3068C292.288 68.5739 293.176 68.8303 293.858 69.076C294.54 69.3212 295.077 69.583 295.468 69.862C295.859 70.1406 296.128 70.4472 296.273 70.7818C296.418 71.1164 296.491 71.4954 296.491 71.9192C296.491 72.8333 296.116 73.558 295.367 74.0934C294.618 74.6288 293.607 74.8963 292.332 74.8963C290.857 74.8963 289.538 74.6341 288.375 74.1099C287.213 73.586 286.062 72.8333 284.921 71.8522L282.44 74.7959C283.848 76.0667 285.38 77.0091 287.034 77.6223C288.688 78.2359 290.421 78.5424 292.232 78.5424C293.462 78.5424 294.59 78.3861 295.619 78.0737C296.647 77.7618 297.53 77.3046 298.268 76.7025C299.006 76.1004 299.582 75.3642 299.995 74.4946C300.409 73.6251 300.615 72.6325 300.615 71.5176C300.615 70.5365 300.453 69.6834 300.129 68.9591C299.805 68.234 299.33 67.5982 298.704 67.0524C298.078 66.5059 297.29 66.043 296.34 65.664C295.389 65.2845 294.3 64.9389 293.07 64.6269C291.952 64.3594 291.03 64.103 290.304 63.8577C289.577 63.6121 289.007 63.3449 288.593 63.0548C288.18 62.7647 287.895 62.4528 287.738 62.1182C287.582 61.7836 287.503 61.382 287.503 60.9137Z" fill="white"/>
<path fill-rule="evenodd" clip-rule="evenodd" d="M129.046 4.39221V51.502H132.948V0.5H0.615479V132.5H132.948V81.498H129.046V128.607H4.51763V4.39221H129.046Z" fill="white"/>
<path d="M145.142 88.5083L144.264 87.6449C144.031 87.8767 143.785 88.0664 143.524 88.2144C143.264 88.3619 142.961 88.4363 142.616 88.4363C142.336 88.4363 142.079 88.3822 141.847 88.2745C141.614 88.1661 141.414 88.0204 141.245 87.8369C141.077 87.6525 140.947 87.4368 140.855 87.1888C140.762 86.9412 140.716 86.673 140.716 86.3851C140.716 86.1054 140.762 85.8436 140.855 85.5995C140.947 85.3554 141.073 85.1419 141.233 84.958C141.394 84.774 141.586 84.628 141.81 84.5199C142.035 84.4122 142.28 84.3578 142.544 84.3578C142.913 84.3578 143.224 84.4318 143.476 84.5801C143.729 84.728 143.967 84.9177 144.192 85.1496L145.094 84.178C144.797 83.8504 144.45 83.5863 144.053 83.3867C143.657 83.1866 143.158 83.0866 142.557 83.0866C142.083 83.0866 141.644 83.1747 141.24 83.3502C140.835 83.5262 140.486 83.7661 140.193 84.07C139.901 84.3743 139.672 84.7257 139.508 85.1254C139.343 85.5255 139.261 85.9532 139.261 86.4093C139.261 86.8646 139.343 87.2907 139.508 87.6866C139.672 88.0825 139.901 88.4301 140.193 88.7298C140.486 89.0299 140.833 89.2656 141.233 89.4377C141.634 89.6097 142.071 89.6956 142.544 89.6956C143.162 89.6956 143.67 89.5856 144.072 89.3656C144.472 89.146 144.829 88.8601 145.142 88.5083ZM147.931 87.1409C147.931 86.7251 147.984 86.3591 148.088 86.0433C148.192 85.7271 148.34 85.4654 148.533 85.2576C148.725 85.0495 148.954 84.8936 149.218 84.7897C149.482 84.6859 149.775 84.6337 150.096 84.6337H150.18V83.0985C149.619 83.0747 149.154 83.2065 148.785 83.4943C148.416 83.7822 148.132 84.1658 147.931 84.646V83.2188H146.476V89.5519H147.931V87.1409ZM152.333 86.9006H156.999C157.006 86.8289 157.013 86.7607 157.017 86.6967C157.021 86.6327 157.023 86.5687 157.023 86.5051C157.023 86.0494 156.959 85.6137 156.83 85.1975C156.702 84.782 156.512 84.418 156.259 84.1064C156.007 83.794 155.69 83.5465 155.309 83.3625C154.928 83.1786 154.486 83.0866 153.981 83.0866C153.523 83.0866 153.107 83.1747 152.73 83.3502C152.353 83.5262 152.026 83.7641 151.75 84.0642C151.473 84.3639 151.259 84.7138 151.106 85.1139C150.954 85.5137 150.878 85.9414 150.878 86.397C150.878 86.8926 150.962 87.3429 151.13 87.7464C151.299 88.1504 151.529 88.4961 151.822 88.7843C152.115 89.0721 152.459 89.2955 152.856 89.4557C153.253 89.6159 153.68 89.6956 154.137 89.6956C154.722 89.6956 155.225 89.5875 155.646 89.3721C156.067 89.156 156.429 88.8678 156.734 88.5083L155.88 87.7526C155.624 88.0001 155.363 88.1883 155.098 88.3163C154.834 88.4443 154.522 88.5083 154.161 88.5083C153.688 88.5083 153.287 88.3703 152.958 88.0944C152.629 87.8185 152.421 87.4207 152.333 86.9006ZM152.321 85.9413C152.385 85.4458 152.563 85.0438 152.856 84.7357C153.149 84.4279 153.52 84.2742 153.968 84.2742C154.209 84.2742 154.423 84.3179 154.612 84.4065C154.8 84.4938 154.962 84.6119 155.098 84.7598C155.235 84.9081 155.343 85.084 155.423 85.2875C155.503 85.4914 155.556 85.7095 155.58 85.9413H152.321ZM163.817 89.5519V85.7972C163.817 84.9499 163.588 84.2919 163.131 83.8243C162.675 83.3564 161.973 83.1226 161.027 83.1226C160.506 83.1226 160.061 83.1705 159.692 83.2663C159.323 83.3625 158.963 83.4905 158.61 83.6503L159.007 84.8139C159.295 84.6939 159.58 84.5977 159.86 84.526C160.141 84.454 160.462 84.418 160.822 84.418C161.327 84.418 161.714 84.5337 161.983 84.7656C162.251 84.9978 162.386 85.3335 162.386 85.7735V85.9291C162.137 85.8494 161.878 85.7854 161.61 85.7375C161.342 85.6896 161.015 85.6654 160.63 85.6654C160.261 85.6654 159.919 85.7076 159.602 85.7915C159.285 85.8754 159.013 86.0011 158.784 86.169C158.555 86.3372 158.377 86.5492 158.249 86.8052C158.121 87.0608 158.057 87.3605 158.057 87.7046V87.7284C158.057 88.0484 158.119 88.3301 158.243 88.5742C158.367 88.818 158.532 89.0219 158.736 89.1859C158.94 89.3499 159.179 89.4741 159.451 89.5576C159.724 89.6416 160.013 89.6837 160.317 89.6837C160.798 89.6837 161.207 89.5956 161.544 89.4197C161.881 89.2441 162.157 89.028 162.374 88.772V89.5519H163.817ZM162.41 87.2609C162.41 87.4605 162.367 87.6426 162.283 87.8066C162.199 87.9706 162.081 88.1105 161.928 88.2262C161.777 88.3424 161.598 88.432 161.393 88.4961C161.189 88.5601 160.967 88.5919 160.726 88.5919C160.381 88.5919 160.091 88.5121 159.854 88.3523C159.618 88.1921 159.5 87.9603 159.5 87.6564V87.6326C159.5 87.3049 159.628 87.0528 159.884 86.8769C160.141 86.7009 160.498 86.6132 160.954 86.6132C161.235 86.6132 161.502 86.6373 161.754 86.6848C162.007 86.7328 162.225 86.7929 162.41 86.8646V87.2609ZM167.244 84.4659H168.951V83.2188H167.244V81.4793H165.788V83.2188H164.983V84.4659H165.788V87.8005C165.788 88.1523 165.833 88.4462 165.92 88.6823C166.009 88.918 166.135 89.1081 166.3 89.2518C166.464 89.3955 166.658 89.4998 166.883 89.5638C167.107 89.6274 167.352 89.6596 167.616 89.6596C167.889 89.6596 168.129 89.6316 168.338 89.576C168.546 89.5197 168.743 89.44 168.927 89.3361V88.1484C168.639 88.2922 168.338 88.3642 168.025 88.3642C167.777 88.3642 167.584 88.3021 167.448 88.1783C167.312 88.0542 167.244 87.8526 167.244 87.5728V84.4659ZM171.344 86.9006H176.01C176.018 86.8289 176.024 86.7607 176.028 86.6967C176.032 86.6327 176.034 86.5687 176.034 86.5051C176.034 86.0494 175.97 85.6137 175.841 85.1975C175.713 84.782 175.523 84.418 175.271 84.1064C175.018 83.794 174.701 83.5465 174.321 83.3625C173.94 83.1786 173.497 83.0866 172.992 83.0866C172.535 83.0866 172.118 83.1747 171.741 83.3502C171.364 83.5262 171.038 83.7641 170.761 84.0642C170.485 84.3639 170.27 84.7138 170.118 85.1139C169.965 85.5137 169.889 85.9414 169.889 86.397C169.889 86.8926 169.973 87.3429 170.142 87.7464C170.31 88.1504 170.54 88.4961 170.833 88.7843C171.126 89.0721 171.47 89.2955 171.868 89.4557C172.264 89.6159 172.691 89.6956 173.148 89.6956C173.733 89.6956 174.236 89.5875 174.657 89.3721C175.078 89.156 175.441 88.8678 175.745 88.5083L174.892 87.7526C174.635 88.0001 174.375 88.1883 174.11 88.3163C173.845 88.4443 173.533 88.5083 173.172 88.5083C172.699 88.5083 172.298 88.3703 171.969 88.0944C171.641 87.8185 171.433 87.4207 171.344 86.9006ZM171.332 85.9413C171.397 85.4458 171.574 85.0438 171.868 84.7357C172.16 84.4279 172.531 84.2742 172.979 84.2742C173.22 84.2742 173.435 84.3179 173.623 84.4065C173.811 84.4938 173.974 84.6119 174.11 84.7598C174.246 84.9081 174.355 85.084 174.435 85.2875C174.515 85.4914 174.567 85.7095 174.591 85.9413H171.332ZM183.778 87.8725L182.07 83.2188H180.507L183.116 89.5994H184.427L187.025 83.2188H185.497L183.778 87.8725ZM193.29 89.5519V85.7972C193.29 84.9499 193.061 84.2919 192.604 83.8243C192.147 83.3564 191.446 83.1226 190.5 83.1226C189.979 83.1226 189.534 83.1705 189.165 83.2663C188.796 83.3625 188.436 83.4905 188.083 83.6503L188.48 84.8139C188.768 84.6939 189.053 84.5977 189.333 84.526C189.614 84.454 189.934 84.418 190.295 84.418C190.8 84.418 191.187 84.5337 191.456 84.7656C191.724 84.9978 191.859 85.3335 191.859 85.7735V85.9291C191.61 85.8494 191.352 85.7854 191.083 85.7375C190.814 85.6896 190.488 85.6654 190.103 85.6654C189.734 85.6654 189.391 85.7076 189.075 85.7915C188.758 85.8754 188.485 86.0011 188.257 86.169C188.029 86.3372 187.85 86.5492 187.722 86.8052C187.594 87.0608 187.529 87.3605 187.529 87.7046V87.7284C187.529 88.0484 187.592 88.3301 187.716 88.5742C187.84 88.818 188.005 89.0219 188.209 89.1859C188.414 89.3499 188.652 89.4741 188.925 89.5576C189.197 89.6416 189.485 89.6837 189.79 89.6837C190.271 89.6837 190.68 89.5956 191.017 89.4197C191.354 89.2441 191.63 89.028 191.847 88.772V89.5519H193.29ZM191.883 87.2609C191.883 87.4605 191.84 87.6426 191.757 87.8066C191.672 87.9706 191.554 88.1105 191.402 88.2262C191.249 88.3424 191.071 88.432 190.866 88.4961C190.662 88.5601 190.44 88.5919 190.199 88.5919C189.854 88.5919 189.564 88.5121 189.327 88.3523C189.091 88.1921 188.973 87.9603 188.973 87.6564V87.6326C188.973 87.3049 189.101 87.0528 189.357 86.8769C189.614 86.7009 189.97 86.6132 190.428 86.6132C190.708 86.6132 190.975 86.6373 191.227 86.6848C191.48 86.7328 191.698 86.7929 191.883 86.8646V87.2609ZM196.56 89.5519V80.7955H195.105V89.5519H196.56ZM202.633 86.7929C202.633 87.2888 202.501 87.6748 202.236 87.9507C201.971 88.2262 201.627 88.3642 201.202 88.3642C200.769 88.3642 200.434 88.2301 200.198 87.9622C199.961 87.6943 199.843 87.313 199.843 86.8171V83.2188H198.388V87.2486C198.388 87.9925 198.584 88.5842 198.977 89.0238C199.37 89.4637 199.927 89.6837 200.649 89.6837C201.138 89.6837 201.539 89.5737 201.851 89.3537C202.164 89.1338 202.425 88.872 202.633 88.5681V89.5519H204.088V83.2188H202.633V86.7929ZM207.022 86.9006H211.687C211.695 86.8289 211.702 86.7607 211.706 86.6967C211.71 86.6327 211.712 86.5687 211.712 86.5051C211.712 86.0494 211.647 85.6137 211.519 85.1975C211.391 84.782 211.201 84.418 210.948 84.1064C210.695 83.794 210.379 83.5465 209.998 83.3625C209.617 83.1786 209.174 83.0866 208.669 83.0866C208.212 83.0866 207.796 83.1747 207.418 83.3502C207.042 83.5262 206.715 83.7641 206.439 84.0642C206.162 84.3639 205.948 84.7138 205.795 85.1139C205.643 85.5137 205.567 85.9414 205.567 86.397C205.567 86.8926 205.651 87.3429 205.819 87.7464C205.988 88.1504 206.218 88.4961 206.511 88.7843C206.803 89.0721 207.148 89.2955 207.545 89.4557C207.942 89.6159 208.369 89.6956 208.825 89.6956C209.411 89.6956 209.914 89.5875 210.335 89.3721C210.755 89.156 211.118 88.8678 211.423 88.5083L210.569 87.7526C210.313 88.0001 210.052 88.1883 209.787 88.3163C209.523 88.4443 209.21 88.5083 208.85 88.5083C208.377 88.5083 207.976 88.3703 207.647 88.0944C207.318 87.8185 207.11 87.4207 207.022 86.9006ZM207.01 85.9413C207.074 85.4458 207.252 85.0438 207.545 84.7357C207.838 84.4279 208.208 84.2742 208.657 84.2742C208.898 84.2742 209.112 84.3179 209.301 84.4065C209.489 84.4938 209.651 84.6119 209.787 84.7598C209.924 84.9081 210.032 85.084 210.112 85.2875C210.192 85.4914 210.245 85.7095 210.269 85.9413H207.01ZM221.668 83.1943H220.429L219.022 87.5605L217.748 83.2188H216.257L218.313 89.5994H219.612L221.043 85.2695L222.461 89.5994H223.76L225.841 83.2188H224.386L223.087 87.5605L221.668 83.1943ZM228.727 82.2473V80.8676H227.163V82.2473H228.727ZM228.678 89.5519V83.2188H227.224V89.5519H228.678ZM232.334 84.4659H234.041V83.2188H232.334V81.4793H230.879V83.2188H230.073V84.4659H230.879V87.8005C230.879 88.1523 230.923 88.4462 231.011 88.6823C231.1 88.918 231.226 89.1081 231.39 89.2518C231.555 89.3955 231.749 89.4998 231.973 89.5638C232.198 89.6274 232.442 89.6596 232.707 89.6596C232.98 89.6596 233.22 89.6316 233.429 89.576C233.637 89.5197 233.833 89.44 234.018 89.3361V88.1484C233.729 88.2922 233.429 88.3642 233.116 88.3642C232.867 88.3642 232.675 88.3021 232.538 88.1783C232.402 88.0542 232.334 87.8526 232.334 87.5728V84.4659ZM236.964 85.9774C236.964 85.4815 237.096 85.0955 237.361 84.8196C237.625 84.544 237.97 84.4065 238.395 84.4065C238.828 84.4065 239.163 84.5402 239.399 84.8081C239.636 85.076 239.754 85.4577 239.754 85.9532V89.5519H241.209V85.5213C241.209 84.7778 241.012 84.1861 240.62 83.7465C240.227 83.3066 239.669 83.0866 238.948 83.0866C238.699 83.0866 238.477 83.1165 238.28 83.1766C238.084 83.2364 237.904 83.3184 237.74 83.4223C237.575 83.5262 237.431 83.6446 237.307 83.7764C237.182 83.9082 237.068 84.0504 236.964 84.2018V80.7955H235.509V89.5519H236.964V85.9774ZM249.386 86.3851C249.386 85.9291 249.302 85.5014 249.133 85.1017C248.965 84.7016 248.73 84.352 248.43 84.0524C248.129 83.7523 247.772 83.5166 247.359 83.3445C246.947 83.1728 246.496 83.0866 246.006 83.0866C245.518 83.0866 245.066 83.1747 244.654 83.3502C244.241 83.5262 243.884 83.7641 243.584 84.0642C243.283 84.3639 243.047 84.7157 242.874 85.1197C242.702 85.5232 242.616 85.9532 242.616 86.4093C242.616 86.8646 242.7 87.2907 242.868 87.6866C243.037 88.0825 243.271 88.4301 243.572 88.7298C243.872 89.0299 244.229 89.2656 244.642 89.4377C245.054 89.6097 245.501 89.6956 245.983 89.6956C246.471 89.6956 246.924 89.6078 247.341 89.4315C247.759 89.2556 248.117 89.018 248.418 88.7179C248.718 88.4183 248.955 88.0683 249.127 87.6682C249.3 87.2685 249.386 86.8412 249.386 86.3851ZM247.931 86.4093C247.931 86.6891 247.886 86.9508 247.799 87.1946C247.71 87.4387 247.582 87.6525 247.414 87.8369C247.245 88.0204 247.042 88.1661 246.806 88.2745C246.57 88.3822 246.303 88.4363 246.006 88.4363C245.726 88.4363 245.468 88.3822 245.231 88.2745C244.994 88.1661 244.79 88.0204 244.618 87.8369C244.446 87.6525 244.311 87.4345 244.215 87.1827C244.119 86.9309 244.071 86.6649 244.071 86.3851C244.071 86.1054 244.115 85.8436 244.203 85.5995C244.291 85.3554 244.419 85.1419 244.588 84.958C244.756 84.774 244.958 84.628 245.195 84.5199C245.431 84.4122 245.694 84.3578 245.983 84.3578C246.271 84.3578 246.534 84.4122 246.77 84.5199C247.007 84.628 247.211 84.7759 247.384 84.9637C247.556 85.1515 247.69 85.3692 247.787 85.6175C247.883 85.8651 247.931 86.1291 247.931 86.4093ZM255.037 86.7929C255.037 87.2888 254.905 87.6748 254.641 87.9507C254.376 88.2262 254.032 88.3642 253.606 88.3642C253.173 88.3642 252.839 88.2301 252.602 87.9622C252.366 87.6943 252.248 87.313 252.248 86.8171V83.2188H250.793V87.2486C250.793 87.9925 250.989 88.5842 251.382 89.0238C251.775 89.4637 252.332 89.6837 253.053 89.6837C253.542 89.6837 253.944 89.5737 254.256 89.3537C254.569 89.1338 254.829 88.872 255.037 88.5681V89.5519H256.492V83.2188H255.037V86.7929ZM260.076 84.4659H261.783V83.2188H260.076V81.4793H258.621V83.2188H257.815V84.4659H258.621V87.8005C258.621 88.1523 258.665 88.4462 258.753 88.6823C258.841 88.918 258.968 89.1081 259.132 89.2518C259.296 89.3955 259.491 89.4998 259.715 89.5638C259.94 89.6274 260.184 89.6596 260.449 89.6596C260.721 89.6596 260.962 89.6316 261.17 89.576C261.379 89.5197 261.575 89.44 261.759 89.3361V88.1484C261.471 88.2922 261.17 88.3642 260.857 88.3642C260.609 88.3642 260.417 88.3021 260.28 88.1783C260.144 88.0542 260.076 87.8526 260.076 87.5728V84.4659ZM271.741 83.1943H270.501L269.094 87.5605L267.82 83.2188H266.329L268.385 89.5994H269.684L271.115 85.2695L272.534 89.5994H273.833L275.913 83.2188H274.458L273.159 87.5605L271.741 83.1943ZM282.298 89.5519V85.7972C282.298 84.9499 282.07 84.2919 281.613 83.8243C281.156 83.3564 280.455 83.1226 279.508 83.1226C278.987 83.1226 278.542 83.1705 278.173 83.2663C277.805 83.3625 277.444 83.4905 277.091 83.6503L277.488 84.8139C277.777 84.6939 278.062 84.5977 278.342 84.526C278.623 84.454 278.943 84.418 279.304 84.418C279.809 84.418 280.196 84.5337 280.464 84.7656C280.733 84.9978 280.867 85.3335 280.867 85.7735V85.9291C280.619 85.8494 280.36 85.7854 280.092 85.7375C279.823 85.6896 279.496 85.6654 279.112 85.6654C278.743 85.6654 278.4 85.7076 278.084 85.7915C277.767 85.8754 277.494 86.0011 277.266 86.169C277.037 86.3372 276.859 86.5492 276.731 86.8052C276.602 87.0608 276.538 87.3605 276.538 87.7046V87.7284C276.538 88.0484 276.6 88.3301 276.725 88.5742C276.849 88.818 277.013 89.0219 277.218 89.1859C277.422 89.3499 277.66 89.4741 277.933 89.5576C278.206 89.6416 278.494 89.6837 278.799 89.6837C279.28 89.6837 279.689 89.5956 280.026 89.4197C280.362 89.2441 280.639 89.028 280.856 88.772V89.5519H282.298ZM280.891 87.2609C280.891 87.4605 280.849 87.6426 280.765 87.8066C280.681 87.9706 280.563 88.1105 280.41 88.2262C280.258 88.3424 280.079 88.432 279.875 88.4961C279.671 88.5601 279.449 88.5919 279.208 88.5919C278.863 88.5919 278.573 88.5121 278.336 88.3523C278.1 88.1921 277.981 87.9603 277.981 87.6564V87.6326C277.981 87.3049 278.11 87.0528 278.366 86.8769C278.623 86.7009 278.979 86.6132 279.436 86.6132C279.717 86.6132 279.984 86.6373 280.236 86.6848C280.489 86.7328 280.707 86.7929 280.891 86.8646V87.2609ZM288.563 87.6805V87.6564C288.563 87.3685 288.503 87.1248 288.383 86.9248C288.262 86.7251 288.108 86.5549 287.92 86.415C287.731 86.2752 287.521 86.1571 287.288 86.0613C287.056 85.9651 286.823 85.8812 286.591 85.8095C286.407 85.7536 286.228 85.6953 286.056 85.6355C285.884 85.5757 285.731 85.5117 285.599 85.4439C285.466 85.3757 285.36 85.2994 285.28 85.2159C285.2 85.1316 285.16 85.0335 285.16 84.9219V84.8978C285.16 84.7138 285.239 84.5617 285.395 84.4421C285.551 84.3222 285.769 84.262 286.05 84.262C286.315 84.262 286.603 84.316 286.916 84.4241C287.228 84.5318 287.537 84.6782 287.841 84.8618L288.419 83.8301C288.082 83.6066 287.709 83.4303 287.3 83.3023C286.891 83.1747 286.487 83.1107 286.086 83.1107C285.773 83.1107 285.479 83.1544 285.202 83.2426C284.925 83.3303 284.685 83.4583 284.481 83.6262C284.276 83.794 284.116 83.9979 284 84.2382C283.883 84.4781 283.825 84.746 283.825 85.0419V85.0656C283.825 85.3692 283.885 85.6233 284.006 85.8271C284.126 86.031 284.28 86.2031 284.469 86.3434C284.657 86.4833 284.87 86.5971 285.106 86.6848C285.342 86.773 285.577 86.8531 285.81 86.9248C285.994 86.9811 286.172 87.0347 286.345 87.0869C286.517 87.139 286.669 87.1984 286.801 87.2666C286.934 87.3344 287.038 87.4126 287.114 87.5004C287.19 87.5885 287.228 87.6924 287.228 87.8127V87.8369C287.228 88.0446 287.142 88.2105 286.97 88.3339C286.797 88.4581 286.555 88.5202 286.243 88.5202C285.914 88.5202 285.571 88.4543 285.214 88.3224C284.857 88.1902 284.507 87.9963 284.162 87.7407L283.513 88.7241C283.913 89.036 284.348 89.2721 284.817 89.4315C285.286 89.5917 285.749 89.6718 286.206 89.6718C286.535 89.6718 286.844 89.6293 287.132 89.5457C287.421 89.4618 287.671 89.338 287.884 89.174C288.096 89.01 288.262 88.8042 288.383 88.5562C288.503 88.3086 288.563 88.0162 288.563 87.6805ZM291.678 84.4659H293.385V83.2188H291.678V81.4793H290.222V83.2188H289.416V84.4659H290.222V87.8005C290.222 88.1523 290.266 88.4462 290.354 88.6823C290.443 88.918 290.569 89.1081 290.734 89.2518C290.898 89.3955 291.092 89.4998 291.317 89.5638C291.541 89.6274 291.786 89.6596 292.05 89.6596C292.323 89.6596 292.563 89.6316 292.772 89.576C292.98 89.5197 293.177 89.44 293.361 89.3361V88.1484C293.073 88.2922 292.772 88.3642 292.459 88.3642C292.21 88.3642 292.018 88.3021 291.882 88.1783C291.746 88.0542 291.678 87.8526 291.678 87.5728V84.4659ZM295.778 86.9006H300.444C300.452 86.8289 300.458 86.7607 300.462 86.6967C300.466 86.6327 300.468 86.5687 300.468 86.5051C300.468 86.0494 300.404 85.6137 300.275 85.1975C300.147 84.782 299.957 84.418 299.704 84.1064C299.452 83.794 299.135 83.5465 298.755 83.3625C298.374 83.1786 297.931 83.0866 297.426 83.0866C296.969 83.0866 296.552 83.1747 296.175 83.3502C295.798 83.5262 295.472 83.7641 295.195 84.0642C294.919 84.3639 294.704 84.7138 294.552 85.1139C294.399 85.5137 294.323 85.9414 294.323 86.397C294.323 86.8926 294.407 87.3429 294.576 87.7464C294.744 88.1504 294.974 88.4961 295.267 88.7843C295.56 89.0721 295.904 89.2955 296.302 89.4557C296.698 89.6159 297.125 89.6956 297.582 89.6956C298.167 89.6956 298.67 89.5875 299.091 89.3721C299.512 89.156 299.875 88.8678 300.179 88.5083L299.326 87.7526C299.069 88.0001 298.808 88.1883 298.544 88.3163C298.279 88.4443 297.967 88.5083 297.606 88.5083C297.133 88.5083 296.732 88.3703 296.403 88.0944C296.075 87.8185 295.866 87.4207 295.778 86.9006ZM295.766 85.9413C295.83 85.4458 296.008 85.0438 296.302 84.7357C296.594 84.4279 296.965 84.2742 297.413 84.2742C297.654 84.2742 297.868 84.3179 298.057 84.4065C298.245 84.4938 298.408 84.6119 298.544 84.7598C298.68 84.9081 298.788 85.084 298.869 85.2875C298.949 85.4914 299.001 85.7095 299.025 85.9413H295.766Z" fill="white"/>
</svg>
